<svg width="114" height="15" viewBox="0 0 114 15" fill="none" xmlns="http://www.w3.org/2000/svg">
<path d="M4.152 9.816L6.372 3.492H8.124L4.968 12H3.264L0.12 3.492H1.932L4.152 9.816ZM12.0903 12H10.4103V3.492H12.0903V12ZM20.5594 12H15.2314V3.492H20.5594V5.052H16.8874V6.996H20.2114V8.472H16.8874V10.44H20.5594V12ZM31.4309 9.372L32.9669 3.492H34.6589L32.3069 12H30.6029L28.6589 5.94L26.7149 12H24.9869L22.6229 3.492H24.3749L25.9349 9.348L27.8189 3.492H29.5349L31.4309 9.372ZM44.9959 12.18C43.7719 12.18 42.7399 11.772 41.8999 10.956C41.0599 10.14 40.6399 9.072 40.6399 7.752C40.6399 6.44 41.0639 5.372 41.9119 4.548C42.7679 3.724 43.7879 3.312 44.9719 3.312C46.0599 3.312 46.9319 3.588 47.5879 4.14C48.2519 4.692 48.6799 5.356 48.8719 6.132L47.3119 6.624C47.1919 6.144 46.9399 5.74 46.5559 5.412C46.1719 5.076 45.6439 4.908 44.9719 4.908C44.2759 4.908 43.6639 5.156 43.1359 5.652C42.6159 6.148 42.3559 6.848 42.3559 7.752C42.3559 8.616 42.6119 9.3 43.1239 9.804C43.6439 10.308 44.2679 10.56 44.9959 10.56C45.6599 10.56 46.1879 10.388 46.5799 10.044C46.9799 9.7 47.2479 9.292 47.3839 8.82L48.9319 9.288C48.8439 9.632 48.6999 9.968 48.4999 10.296C48.3079 10.624 48.0559 10.932 47.7439 11.22C47.4319 11.508 47.0359 11.74 46.5559 11.916C46.0839 12.092 45.5639 12.18 44.9959 12.18ZM56.9284 12L56.2204 10.056H52.7644L52.0564 12H50.3044L53.5684 3.492H55.4884L58.7284 12H56.9284ZM54.4924 5.328L53.3164 8.544H55.6684L54.4924 5.328ZM66.6937 5.52L65.2057 5.976C65.1497 5.672 64.9977 5.396 64.7497 5.148C64.5017 4.9 64.1377 4.776 63.6577 4.776C63.2657 4.776 62.9457 4.884 62.6977 5.1C62.4497 5.308 62.3257 5.56 62.3257 5.856C62.3257 6.376 62.6337 6.696 63.2497 6.816L64.4377 7.044C65.1897 7.188 65.7737 7.488 66.1897 7.944C66.6057 8.4 66.8137 8.936 66.8137 9.552C66.8137 10.256 66.5337 10.872 65.9737 11.4C65.4217 11.92 64.6777 12.18 63.7417 12.18C63.2057 12.18 62.7217 12.1 62.2897 11.94C61.8577 11.78 61.5097 11.568 61.2457 11.304C60.9817 11.032 60.7737 10.748 60.6217 10.452C60.4777 10.148 60.3897 9.836 60.3577 9.516L61.8937 9.108C61.9337 9.564 62.1097 9.944 62.4217 10.248C62.7417 10.552 63.1857 10.704 63.7537 10.704C64.1857 10.704 64.5217 10.608 64.7617 10.416C65.0097 10.224 65.1337 9.972 65.1337 9.66C65.1337 9.412 65.0417 9.2 64.8577 9.024C64.6817 8.84 64.4297 8.716 64.1017 8.652L62.9137 8.412C62.2257 8.268 61.6817 7.984 61.2817 7.56C60.8817 7.136 60.6817 6.608 60.6817 5.976C60.6817 5.224 60.9697 4.592 61.5457 4.08C62.1297 3.568 62.8297 3.312 63.6457 3.312C64.1337 3.312 64.5697 3.38 64.9537 3.516C65.3377 3.652 65.6457 3.836 65.8777 4.068C66.1097 4.292 66.2897 4.524 66.4177 4.764C66.5457 5.004 66.6377 5.256 66.6937 5.52ZM74.7398 12H69.4118V3.492H74.7398V5.052H71.0678V6.996H74.3918V8.472H71.0678V10.44H74.7398V12Z" fill="black"/>
<path d="M113.354 7.35355C113.549 7.15829 113.549 6.84171 113.354 6.64645L110.172 3.46447C109.976 3.2692 109.66 3.2692 109.464 3.46447C109.269 3.65973 109.269 3.97631 109.464 4.17157L112.293 7L109.464 9.82843C109.269 10.0237 109.269 10.3403 109.464 10.5355C109.66 10.7308 109.976 10.7308 110.172 10.5355L113.354 7.35355ZM81 7.5H113V6.5H81V7.5Z" fill="black"/>
</svg>
